<?xml version="1.0" encoding="UTF-8"?>
<svg width="40px" height="40px" viewBox="0 0 40 40" version="1.1" xmlns="http://www.w3.org/2000/svg" xmlns:xlink="http://www.w3.org/1999/xlink">
    <title>new twitter icon</title>
    <defs>
        <filter id="filter-1">
            <feColorMatrix in="SourceGraphic" type="matrix" values="0 0 0 0 0.133333 0 0 0 0 0.235294 0 0 0 0 0.349020 0 0 0 1.000000 0"></feColorMatrix>
        </filter>
    </defs>
    <g id="Support" stroke="none" stroke-width="1" fill="none" fill-rule="evenodd">
        <g id="Eton's-social-vision-v2" transform="translate(-816.000000, -1808.000000)">
            <g id="new-twitter-icon" transform="translate(776.000000, 1771.000000)" filter="url(#filter-1)">
                <g transform="translate(40.000000, 37.000000)">
                    <path d="M27.7655641,16.1704824 C27.2230247,16.4114185 26.6380182,16.5743536 26.0261447,16.6471544 C26.651885,16.2727503 27.1320237,15.679077 27.3573595,14.9718691 C26.772353,15.3194063 26.1240792,15.5707425 25.4333381,15.705944 C24.882132,15.1174707 24.0943233,14.75 23.2224469,14.75 C21.5506283,14.75 20.1942799,16.1063484 20.1942799,17.7790337 C20.1942799,18.016503 20.2194135,18.2470389 20.2722808,18.468908 C17.7545862,18.3423732 15.5228947,17.1376932 14.0278781,15.3038062 C13.7670085,15.7527445 13.6179402,16.2727503 13.6179402,16.8274231 C13.6179402,17.8778348 14.1526795,18.8051784 14.9656218,19.3485844 C14.4690163,19.3338509 14.0018778,19.1960494 13.5928066,18.9707136 L13.5928066,19.0079806 C13.5928066,20.4761303 14.6371515,21.7007439 16.0238336,21.9780803 C15.7690308,22.0491478 15.5020945,22.0846815 15.2247581,22.0846815 C15.0297559,22.0846815 14.8390871,22.0664813 14.6553517,22.0309476 C15.040156,23.2338943 16.1590351,24.1109707 17.4850498,24.1335043 C16.4476383,24.9464466 15.1415571,25.4309187 13.722808,25.4309187 C13.4784053,25.4309187 13.2366026,25.4170519 13,25.3893182 C14.3407482,26.2473277 15.9328326,26.75 17.6436516,26.75 C23.2163802,26.75 26.2627474,22.134082 26.2627474,18.1309042 C26.2627474,17.9991694 26.2601473,17.8674346 26.2540806,17.7391665 C26.8460205,17.3110285 27.3608262,16.7780225 27.7655641,16.1704824" id="Fill-1" fill="#FFFFFF"></path>
                    <circle id="Oval" stroke="#FFFFFF" cx="20" cy="20" r="19.5"></circle>
                </g>
            </g>
        </g>
    </g>
</svg>