<svg xmlns="http://www.w3.org/2000/svg" width="40" height="40" viewBox="0 0 40 40">
  <path fill="#39579A" fill-rule="evenodd" d="M87,148 C75.954305,148 67,139.045695 67,128 C67,116.954305 75.954305,108 87,108 C98.045695,108 107,116.954305 107,128 C107,139.045695 98.045695,148 87,148 Z M88.1391542,137 L88.1391542,128.9 L90.5983239,128.9 L91,125.3 L88.1391542,125.3 L88.1391542,123.5468 C88.1391542,122.6198 88.1628338,121.7 89.4581953,121.7 L90.7702202,121.7 L90.7702202,119.126 C90.7702202,119.0873 89.6432469,119 88.5031183,119 C86.1220035,119 84.6310661,120.4913 84.6310661,123.23 L84.6310661,125.3 L82,125.3 L82,128.9 L84.6310661,128.9 L84.6310661,137 L88.1391542,137 Z" transform="translate(-67 -108)"/>
</svg>
