<svg xmlns="http://www.w3.org/2000/svg" width="40" height="40" viewBox="0 0 40 40">
  <path fill="#007AB8" fill-rule="evenodd" d="M147,148 C135.954305,148 127,139.045695 127,128 C127,116.954305 135.954305,108 147,108 C158.045695,108 167,116.954305 167,128 C167,139.045695 158.045695,148 147,148 Z M156,135 L156,127.8243 C156,124.7881 154.2252,123.321 151.82055,123.321 C149.41675,123.321 148.35,125.1927 148.35,125.1927 L148.35,123.95 L144.95,123.95 L144.95,135 L148.35,135 L148.35,129.05085 C148.35,127.4571 149.18385,126.5085 150.5889,126.5085 C151.88005,126.5085 152.6,127.41885 152.6,129.05085 L152.6,135 L156,135 Z M141.0757,122.18285 C142.2215,122.18285 143.1514,121.24615 143.15055,120.091 C143.15055,118.9367 142.2215,118 141.0757,118 C139.92905,118 139,118.9367 139,120.091 C139,121.24615 139.92905,122.18285 141.0757,122.18285 Z M139,135 L143.25,135 L143.25,123.95 L139,123.95 L139,135 Z" transform="translate(-127 -108)"/>
</svg>
