<?xml version="1.0" standalone="no"?>
<!DOCTYPE svg PUBLIC "-//W3C//DTD SVG 20010904//EN"
 "http://www.w3.org/TR/2001/REC-SVG-20010904/DTD/svg10.dtd">
<svg version="1.0" xmlns="http://www.w3.org/2000/svg"
 width="620.000000pt" height="626.000000pt" viewBox="0 0 620.000000 626.000000"
 preserveAspectRatio="xMidYMid meet">

<g transform="translate(0.000000,626.000000) scale(0.100000,-0.100000)"
fill="#000000" stroke="none">
<path d="M2840 5929 c-551 -55 -1061 -260 -1493 -601 -137 -108 -362 -336
-472 -480 -301 -390 -482 -821 -560 -1328 -22 -144 -31 -485 -16 -635 67 -690
358 -1302 841 -1768 533 -515 1226 -797 1960 -797 1551 1 2810 1257 2810 2804
0 745 -277 1431 -795 1965 -429 443 -986 728 -1610 822 -152 23 -516 33 -665
18z m951 -974 c20 -250 159 -490 375 -646 135 -97 276 -150 438 -165 l73 -7 7
-96 c3 -53 6 -197 6 -320 l0 -224 -107 6 c-246 14 -481 87 -700 219 l-93 56 0
-696 c0 -765 -2 -802 -60 -974 -137 -408 -471 -703 -900 -795 -103 -22 -353
-24 -445 -5 -260 56 -463 169 -644 357 -164 171 -270 379 -312 615 -20 112
-16 325 9 440 96 447 427 790 875 907 90 23 122 27 269 27 91 1 170 -2 174 -6
4 -5 8 -151 8 -325 l1 -318 -30 3 c-16 2 -77 4 -135 5 -87 1 -117 -2 -172 -21
-261 -90 -409 -348 -358 -623 24 -127 139 -290 249 -350 24 -13 53 -29 65 -36
75 -42 245 -55 351 -28 184 48 342 207 389 391 14 55 16 209 16 1371 0 720 3
1313 7 1316 4 4 149 6 322 5 l316 -3 6 -80z"/>
</g>
</svg>
