<svg xmlns="http://www.w3.org/2000/svg" width="40" height="40" viewBox="0 0 40 40">
  <path fill="#00B5F4" fill-rule="evenodd" d="M27,148 C15.954305,148 7,139.045695 7,128 C7,116.954305 15.954305,108 27,108 C38.045695,108 47,116.954305 47,128 C47,139.045695 38.045695,148 27,148 Z M23.661,135.4 C30.4533,135.4 34.1685,129.859288 34.1685,125.054915 C34.1685,124.897191 34.1685,124.740354 34.1577,124.584402 C34.8804,124.070471 35.5041,123.432487 36,122.70235 C35.3268,122.996531 34.6113,123.189699 33.8796,123.274763 C34.65,122.8202 35.2269,122.106012 35.5032,121.263342 C34.7778,121.686892 33.9849,121.985504 33.1578,122.145886 C31.7592,120.682068 29.4201,120.611181 27.9324,121.988162 C26.9739,122.876023 26.5662,124.19984 26.8641,125.462516 C23.895,125.315425 21.1284,123.934899 19.2528,121.663854 C18.2727,123.32527 18.774,125.450111 20.3967,126.516961 C19.809,126.500126 19.2339,126.344174 18.72,126.062398 L18.72,126.108475 C18.7209,127.839006 19.9602,129.329407 21.6828,129.672323 C21.1392,129.818528 20.5686,129.839794 20.016,129.734349 C20.4993,131.215889 21.8862,132.230461 23.4657,132.259702 C22.158,133.271615 20.5425,133.82099 18.8793,133.819218 C18.5859,133.818332 18.2925,133.801496 18,133.766939 C19.6893,134.833789 21.654,135.4 23.661,135.397342 L23.661,135.4 Z" transform="translate(-7 -108)"/>
</svg>
