<svg xmlns="http://www.w3.org/2000/svg" width="40" height="40" viewBox="0 0 40 40">
  <g fill="none" fill-rule="evenodd">
    <circle cx="20" cy="20" r="19.5" fill="#86c9ef"/>
    <path fill="#FFF" d="M28.6384786,16.46995 C28.559928,18.1581573 27.3603014,20.4693673 25.0393954,23.4035801 C22.6401423,26.4673934 20.6100364,28 18.9500951,28 C17.9210007,28 17.0506355,27.067396 16.3394065,25.2007879 C15.8646434,23.4897804 15.3902872,21.778973 14.9153206,20.0679656 C14.3870372,18.2023575 13.820903,17.2685535 13.214883,17.2685535 C13.0828122,17.2685535 12.6208695,17.5415546 11.8298689,18.085157 L11,17.0343524 C11.8709757,16.2825492 12.7299449,15.5305459 13.5750762,14.7775427 C14.7366485,13.7915384 15.6092522,13.2725361 16.1904453,13.2203359 C17.5632495,13.0905353 18.4085843,14.0129393 18.7258392,15.9875479 C19.068735,18.1183571 19.3062183,19.4433629 19.4393067,19.9619651 C19.8357227,21.7297728 20.2714141,22.6127766 20.7469912,22.6127766 C21.1159349,22.6127766 21.6710801,22.0395741 22.4110025,20.8923692 C23.1495003,19.7459642 23.5455093,18.8735604 23.5988261,18.2739578 C23.7044421,17.2845535 23.308433,16.7885514 22.4110025,16.7885514 C21.9885386,16.7885514 21.5528472,16.8841518 21.1047424,17.0729526 C21.9722586,14.2815405 23.6291474,12.9257346 26.0747983,13.003135 C27.8879743,13.0553352 28.7432806,14.2109402 28.6384786,16.46995"/>
  </g>
</svg>
